<?xml version="1.0" encoding="UTF-8"?> <svg xmlns="http://www.w3.org/2000/svg" id="Capa_1" data-name="Capa 1" viewBox="0 0 751.41 180"><defs><style>.cls-1{fill:#0065a1;}.cls-2{fill:#76bc21;}.cls-3{fill:#ff8300;}</style></defs><title>logos-innova</title><path class="cls-1" d="M80.62,175.23s12.89-34,10.51-86.36C89.66,56.51,76,23.52,76,23.52S116.13,37,145.13,69.75a183.55,183.55,0,0,1-20,54.21C109.41,152.12,86.08,172.08,80.62,175.23Z"></path><path class="cls-2" d="M73.9,73.74S48.05,57.35,15.69,66.81c0,0,8.15,64.33,64.93,108.42C80.62,175.23,90.83,122.93,73.9,73.74Z"></path><path class="cls-3" d="M71.32,65.88A195.67,195.67,0,0,0,45.83,15.64s-11.39-2.72-31.93-3a167.84,167.84,0,0,0-.24,37.87S41.87,43.61,71.32,65.88Z"></path><path class="cls-1" d="M193,76.31v44h9.38v6.91H175.26v-6.91h9.63v-44h-9.63V69.4h27.11v6.91Z"></path><path class="cls-1" d="M252.4,125.39c-1.6,1.48-4.09,2-6.44,2-5,0-8.31-3.79-8.31-8.75,0-.07,0-.14,0-.22l-.24-13.6v-2.38c.17-4.51-1.79-8.55-7.52-8.61-7.22-.07-11.56,6-11.83,15.42h0s0,17.34,0,17.34h-7.38l.14-30.34a2.79,2.79,0,0,0-3.19-2.6,5.44,5.44,0,0,0-2,.59l-2.34-4.93a10.45,10.45,0,0,1,6.15-2.1c4-.08,6.49,1.86,8.24,5.68,3.44-4.2,8.24-6.36,14.36-6.18,7.94.24,13.14,5.79,13.07,16.54,0,.08,0,6.46,0,6.46h0v8.42a2.62,2.62,0,0,0,2.65,2.82,8,8,0,0,0,2.47-.65Z"></path><path class="cls-1" d="M304.25,125.39c-1.6,1.48-4.08,2-6.44,2-5,0-8.31-3.79-8.31-8.75,0-.07,0-.14,0-.22l-.24-13.6v-2.38c.18-4.51-1.79-8.55-7.52-8.61-7.22-.07-11.56,6-11.83,15.42h0s0,17.34,0,17.34H262.5l.14-30.34a2.77,2.77,0,0,0-3.18-2.6,5.39,5.39,0,0,0-2,.59l-2.35-4.93a10.45,10.45,0,0,1,6.15-2.1c4.06-.08,6.49,1.86,8.24,5.68,3.45-4.2,8.24-6.36,14.36-6.18,7.94.24,13.14,5.79,13.07,16.54,0,.08,0,6.46,0,6.46h0v8.42a2.62,2.62,0,0,0,2.66,2.82,8,8,0,0,0,2.46-.65Z"></path><path class="cls-1" d="M348.59,107.19c0,11.76-9.32,20.32-20.85,20.32S307,119,307,107.19,316.2,87,327.74,87,348.59,95.5,348.59,107.19Zm-7.56,0c0-8-6-13.76-13.29-13.76s-13.22,5.73-13.22,13.76,6,13.9,13.22,13.9S341,115.28,341,107.19Z"></path><path class="cls-1" d="M391.65,87.72,375.1,127.08h-7.33L351.22,87.72h7.91l12.31,30.33,12.31-30.33Z"></path><path class="cls-1" d="M434,125.27c-1.6,1.48-4.08,2-6.44,2a7.9,7.9,0,0,1-7.19-4.23,15.7,15.7,0,0,1-8,4c-5.79,1.1-12.64-.23-15.71-5.27-2.79-4.59-2.72-13.16,5.28-16.53S419,104.7,419,104.7v-2.38c.17-4.5-1.61-8.36-7.31-8.88a19.62,19.62,0,0,0-11.25,2.27L397.7,90a28.73,28.73,0,0,1,16.45-3.35c7.9.88,12.61,5.7,12.54,16.46,0,.08,0,6.45,0,6.45h0V118a2.63,2.63,0,0,0,2.66,2.82,7.73,7.73,0,0,0,2.46-.66Zm-14.75-8.12-.12-6.9c-3.08-.69-10.33-1.92-14.2.82-4.93,3.5-1.79,8.18,1.86,9.28C410.19,121.37,415.91,120.17,419.26,117.15Z"></path><path class="cls-1" d="M482.65,76.56c-7.63-.84-13.2,3.21-12.27,9.81S479.43,93.31,489.5,97a15.8,15.8,0,0,1,9.89,19.29c-1.87,6.18-6.68,11.34-17.93,11.5s-17.76-4.23-17.76-4.23V114.8c1.26,1.52,9,6.09,16.83,6.09s11.67-3.72,11.76-9.56-5.67-7.53-12.1-9.39-13.67-4.28-16-9.27-3.67-17.46,8.85-22,24.54,3,24.54,3l-3,6.43A33.49,33.49,0,0,0,482.65,76.56Z"></path><path class="cls-1" d="M538.38,116.92l0,.26v7.66A21.93,21.93,0,0,1,527.08,128c-11.86,0-21.48-9.24-21.48-20.64s9.62-20.64,21.48-20.64a18,18,0,0,1,11.37,3.75l-2.42,5a15.43,15.43,0,0,0-9-2.09c-8.74.49-14.29,6.41-14.29,14s6,13.72,14.75,13.72A15.1,15.1,0,0,0,538.38,116.92Z"></path><path class="cls-1" d="M587.87,125.49c-1.6,1.49-4.09,2-6.44,2-5,0-8.31-3.79-8.31-8.75,0-.07,0-.14,0-.22l-.24-13.6v-2.37c.17-4.51-1.8-8.56-7.52-8.62-7.23-.07-11.57,5.95-11.83,15.42h0v17.34h-7.39l.14-30V74.21c0-2.56-1.71-3.25-3.18-3.18a6.56,6.56,0,0,0-2.23.58L538.4,66.8a11.12,11.12,0,0,1,6.46-1.9,7.64,7.64,0,0,1,8.08,6.48c0,.12.11,21.5.17,21.62,3.44-4.2,8.24-6.37,14.35-6.18,7.95.24,13.15,5.79,13.08,16.54,0,.08,0,6.45,0,6.45h0v8.42a2.62,2.62,0,0,0,2.65,2.82,8.05,8.05,0,0,0,2.47-.66Z"></path><path class="cls-1" d="M632.14,107.19c0,11.76-9.32,20.32-20.86,20.32S590.5,119,590.5,107.19,599.75,87,611.28,87,632.14,95.5,632.14,107.19Zm-7.56,0c0-8-6-13.76-13.3-13.76s-13.22,5.73-13.22,13.76,6,13.9,13.22,13.9S624.58,115.28,624.58,107.19Z"></path><path class="cls-1" d="M679.69,107.19c0,11.76-9.32,20.32-20.85,20.32s-20.78-8.56-20.78-20.32S647.3,87,658.84,87,679.69,95.5,679.69,107.19Zm-7.56,0c0-8-6-13.76-13.29-13.76s-13.22,5.73-13.22,13.76,6,13.9,13.22,13.9S672.13,115.28,672.13,107.19Z"></path><path class="cls-1" d="M701.55,124.57a8.88,8.88,0,0,1-6.19,2c-5,0-8.06-3.86-8.21-8.82l.16-22V73.29c0-2.57-1.72-3.25-3.18-3.18a6.5,6.5,0,0,0-2.23.58l-2.45-4.81A11.24,11.24,0,0,1,685.92,64c3.93-.07,7.84,2.31,8.08,6.8,0,0,0,2.43,0,6.19l.05,40.33a2.83,2.83,0,0,0,2.81,2.84,7.62,7.62,0,0,0,2.46-.49Z"></path><path class="cls-1" d="M737.65,120c-2.14,3.78-5.18,7.48-14.91,7.59s-15-3.11-15-3.11l0-7.69c1.09,1,7.75,4.31,14.55,4.31s8.53-2.55,8.81-4.69c.55-4.28-4.63-5.32-10-6-5.64-.73-10.07-2.21-12.84-5.32-3-3.43-3.55-14.1,7.25-17.12,11.12-3.1,20.85,2.07,20.85,2.07l-2.76,6.22s-2.77-2-8.77-2.49c-6.59-.55-11.83.86-11,5.18,1,5.31,7.52,3.86,16.3,6A10.64,10.64,0,0,1,737.65,120Z"></path></svg> 
